Coordinates
version=1
nRows=8
nColumns=40
inDegrees=yes

Units are S.I. units (second, meters, Newtons, ...)
Angles are in degrees.

endheader
time	pelvis_tilt	pelvis_list	pelvis_rotation	pelvis_tx	pelvis_ty	pelvis_tz	hip_flexion_r	hip_adduction_r	hip_rotation_r	knee_angle_r	knee_angle_r_beta	ankle_angle_r	subtalar_angle_r	mtp_angle_r	hip_flexion_l	hip_adduction_l	hip_rotation_l	knee_angle_l	knee_angle_l_beta	ankle_angle_l	subtalar_angle_l	mtp_angle_l	lumbar_extension	lumbar_bending	lumbar_rotation	arm_flex_r	arm_add_r	arm_rot_r	elbow_flex_r	pro_sup_r	wrist_flex_r	wrist_dev_r	arm_flex_l	arm_add_l	arm_rot_l	elbow_flex_l	pro_sup_l	wrist_flex_l	wrist_dev_l
      1.53750000	     -5.28498578	     -2.72848645	    -11.62263856	      1.08886188	      0.92729449	      0.46821723	     20.18324636	      2.98390531	     -2.92116265	     19.58697285	     19.58697285	      7.81358274	      4.52761402	     -4.04765031	      1.43545325	     -6.42087824	    -15.07942934	     17.38596596	     17.38596596	     18.31933928	    -11.31280600	      3.56220906	     -7.87402243	      6.92251279	     -0.30476755	    -15.10355026	    -13.35296299	    -12.71069129	     42.06829485	     44.82459317	      0.00000000	      0.00000000	     38.91870428	    -22.69550038	    -12.67746678	     74.49912757	     47.71653944	      0.00000000	      0.00000000
      1.55942857	     -5.30067107	     -3.07875773	    -11.18890733	      1.08969657	      0.92813629	      0.47322278	     19.27425446	      3.55129776	     -3.41391505	     18.80548766	     18.80548766	      7.92906877	      4.70934894	     -3.93719830	      1.53983626	     -7.33499507	    -14.85050787	     18.32150540	     18.32150540	     18.12817692	    -11.13895743	      3.48181472	     -7.82959639	      7.09186581	     -0.34106691	    -14.89389268	    -13.50514124	    -12.64529013	     42.79733207	     44.80477637	      0.00000000	      0.00000000	     38.31954501	    -22.17364396	    -12.64696898	     74.23547798	     47.70860774	      0.00000000	      0.00000000
      1.58135714	     -5.30921555	     -3.23745995	    -10.72820243	      1.09031971	      0.92880609	      0.47799033	     18.56519784	      3.91330166	     -3.80674794	     18.30323875	     18.30323875	      8.13132467	      4.75798370	     -3.95977656	      1.86205718	     -8.09836925	    -14.66945422	     19.55086034	     19.55086034	     17.85607372	    -10.87412936	      3.23336018	     -7.75598848	      7.04574699	     -0.35256102	    -14.70286785	    -13.57157503	    -12.50151202	     43.60964216	     44.77912206	      0.00000000	      0.00000000	     37.59326218	    -21.48909466	    -12.67086188	     73.91943522	     47.70244280	      0.00000000	      0.00000000
      1.60328571	     -5.28063592	     -3.38379579	    -10.22624346	      1.09079735	      0.92943615	      0.48253249	     17.84957914	      4.24574246	     -4.21849492	     17.83150359	     17.83150359	      8.30728719	      4.74573077	     -3.99559857	      2.42033165	     -8.89960850	    -14.34840756	     21.23663397	     21.23663397	     17.48064233	    -10.80422437	      2.74779801	     -7.68708026	      6.98346115	     -0.31016439	    -14.41047834	    -13.57948327	    -12.29318218	     44.31361745	     44.75511354	      0.00000000	      0.00000000	     36.70651351	    -20.68366977	    -12.69463824	     73.50578812	     47.69282069	      0.00000000	      0.00000000
      1.62521429	     -5.22018901	     -3.53993933	     -9.68187141	      1.09109237	      0.92989317	      0.48696145	     17.17089129	      4.60459202	     -4.53702305	     17.44277387	     17.44277387	      8.40776102	      4.44956769	     -4.27708829	      3.23169469	     -9.83195452	    -14.08341331	     23.41105644	     23.41105644	     16.71014029	    -10.64385381	      1.00990345	     -7.67824254	      6.93005040	     -0.26464103	    -14.25615005	    -13.71648239	    -11.38119375	     45.64009436	     44.70972608	      0.00000000	      0.00000000	     35.72614237	    -19.54804288	    -13.21666114	     72.65061735	     47.71359200	      0.00000000	      0.00000000
      1.64714286	     -5.12007225	     -3.65864228	     -9.06838321	      1.09116657	      0.93028444	      0.49106568	     16.51438951	      4.87725073	     -4.97306959	     17.12898593	     17.12898593	      8.64836038	      4.33956307	     -4.30753322	      4.37345617	    -10.64517013	    -13.15612412	     26.14467068	     26.14467068	     16.00013141	    -11.29296984	      0.24771948	     -7.73024668	      6.82025813	     -0.17849327	    -13.55020035	    -13.57237526	    -11.15628578	     45.80314693	     44.70688091	      0.00000000	      0.00000000	     34.43308816	    -18.58762668	    -12.95652032	     72.06252868	     47.67687412	      0.00000000	      0.00000000
      1.66907143	     -5.05371701	     -3.75941048	     -8.37768867	      1.09097530	      0.93030725	      0.49492748	     16.07622460	      5.12713471	     -5.37485202	     17.09043628	     17.09043628	      8.90504109	      3.92175958	     -4.37526236	      5.94097736	    -11.49441540	    -12.06547348	     29.47567114	     29.47567114	     15.04085638	    -11.99802377	     -0.93502883	     -7.71489931	      6.72268642	     -0.18738457	    -12.62811838	    -13.40437828	    -10.81935878	     45.82133257	     44.70782969	      0.00000000	      0.00000000	     32.93177851	    -17.56969280	    -12.74940712	     71.09154431	     47.63576848	      0.00000000	      0.00000000
      1.69100000	     -4.82596127	     -3.89977820	     -7.63410142	      1.09058202	      0.93015254	      0.49856671	     15.61858180	      5.38510690	     -5.75291317	     17.30839194	     17.30839194	      9.31361780	      3.35973398	     -4.50225633	      7.65281656	    -12.32877430	    -10.72123503	     33.26227584	     33.26227584	     13.94619163	    -12.84294917	     -2.00143163	     -7.93962098	      6.65182765	     -0.14040210	    -11.46718578	    -13.18805604	    -10.49469785	     45.82449260	     44.70764513	      0.00000000	      0.00000000	     31.37571566	    -16.49842018	    -12.46908559	     70.00712273	     47.58675143	      0.00000000	      0.00000000
